<svg width="31" height="30" viewBox="0 0 31 30" fill="none" xmlns="http://www.w3.org/2000/svg">
<path fill-rule="evenodd" clip-rule="evenodd" d="M6.75 14.375C6.75 14.0435 6.8817 13.7255 7.11612 13.4911C7.35054 13.2567 7.66848 13.125 8 13.125H9.25C9.58152 13.125 9.89946 13.2567 10.1339 13.4911C10.3683 13.7255 10.5 14.0435 10.5 14.375V15.625C10.5 15.9565 10.3683 16.2745 10.1339 16.5089C9.89946 16.7433 9.58152 16.875 9.25 16.875H8C7.66848 16.875 7.35054 16.7433 7.11612 16.5089C6.8817 16.2745 6.75 15.9565 6.75 15.625V14.375ZM9.25 14.375V15.625H8V14.375H9.25ZM13 13.125C12.6685 13.125 12.3505 13.2567 12.1161 13.4911C11.8817 13.7255 11.75 14.0435 11.75 14.375V15.625C11.75 15.9565 11.8817 16.2745 12.1161 16.5089C12.3505 16.7433 12.6685 16.875 13 16.875H14.25C14.5815 16.875 14.8995 16.7433 15.1339 16.5089C15.3683 16.2745 15.5 15.9565 15.5 15.625V14.375C15.5 14.0435 15.3683 13.7255 15.1339 13.4911C14.8995 13.2567 14.5815 13.125 14.25 13.125H13ZM14.25 14.375H13V15.625H14.25V14.375ZM16.75 14.375C16.75 14.0435 16.8817 13.7255 17.1161 13.4911C17.3505 13.2567 17.6685 13.125 18 13.125H19.25C19.5815 13.125 19.8995 13.2567 20.1339 13.4911C20.3683 13.7255 20.5 14.0435 20.5 14.375V15.625C20.5 15.9565 20.3683 16.2745 20.1339 16.5089C19.8995 16.7433 19.5815 16.875 19.25 16.875H18C17.6685 16.875 17.3505 16.7433 17.1161 16.5089C16.8817 16.2745 16.75 15.9565 16.75 15.625V14.375ZM18 14.375H19.25V15.625H18V14.375ZM8 18.125C7.66848 18.125 7.35054 18.2567 7.11612 18.4911C6.8817 18.7255 6.75 19.0435 6.75 19.375V20.625C6.75 20.9565 6.8817 21.2745 7.11612 21.5089C7.35054 21.7433 7.66848 21.875 8 21.875H9.25C9.58152 21.875 9.89946 21.7433 10.1339 21.5089C10.3683 21.2745 10.5 20.9565 10.5 20.625V19.375C10.5 19.0435 10.3683 18.7255 10.1339 18.4911C9.89946 18.2567 9.58152 18.125 9.25 18.125H8ZM8 19.375V20.625H9.25V19.375H8ZM11.75 19.375C11.75 19.0435 11.8817 18.7255 12.1161 18.4911C12.3505 18.2567 12.6685 18.125 13 18.125H14.25C14.5815 18.125 14.8995 18.2567 15.1339 18.4911C15.3683 18.7255 15.5 19.0435 15.5 19.375V20.625C15.5 20.9565 15.3683 21.2745 15.1339 21.5089C14.8995 21.7433 14.5815 21.875 14.25 21.875H13C12.6685 21.875 12.3505 21.7433 12.1161 21.5089C11.8817 21.2745 11.75 20.9565 11.75 20.625V19.375ZM13 19.375H14.25V20.625H13V19.375Z" fill="#7E7143"/>
<path d="M22.375 19.6875C22.5408 19.6875 22.6997 19.7533 22.8169 19.8706C22.9342 19.9878 23 20.1467 23 20.3125V21.6162L23.4419 22.0581C23.5557 22.176 23.6187 22.3339 23.6173 22.4978C23.6159 22.6616 23.5501 22.8184 23.4343 22.9343C23.3184 23.0501 23.1616 23.1159 22.9978 23.1173C22.8339 23.1187 22.676 23.0557 22.5581 22.9419L21.75 22.1337V20.3125C21.75 20.1467 21.8158 19.9878 21.9331 19.8706C22.0503 19.7533 22.2092 19.6875 22.375 19.6875Z" fill="#7E7143"/>
<path fill-rule="evenodd" clip-rule="evenodd" d="M8 4.375C8 4.20924 8.06585 4.05027 8.18306 3.93306C8.30027 3.81585 8.45924 3.75 8.625 3.75C8.79076 3.75 8.94973 3.81585 9.06694 3.93306C9.18415 4.05027 9.25 4.20924 9.25 4.375V7.5C9.25 7.66576 9.18415 7.82473 9.06694 7.94194C8.94973 8.05915 8.79076 8.125 8.625 8.125C8.45924 8.125 8.30027 8.05915 8.18306 7.94194C8.06585 7.82473 8 7.66576 8 7.5V6.875H6.125C5.95924 6.875 5.80027 6.94085 5.68306 7.05806C5.56585 7.17527 5.5 7.33424 5.5 7.5V10H21.75V7.5C21.75 7.33424 21.6842 7.17527 21.5669 7.05806C21.4497 6.94085 21.2908 6.875 21.125 6.875H19.25V5.625H21.125C21.6223 5.625 22.0992 5.82254 22.4508 6.17417C22.8025 6.52581 23 7.00272 23 7.5V17.5437C24.0947 17.702 25.0889 18.2689 25.7825 19.1305C26.4761 19.9921 26.8177 21.0844 26.7385 22.1877C26.6593 23.2909 26.1652 24.3233 25.3556 25.077C24.5461 25.8306 23.4811 26.2498 22.375 26.25C21.6696 26.2505 20.9746 26.0802 20.3493 25.7537C19.724 25.4271 19.1871 24.9541 18.7844 24.375H6.125C5.62772 24.375 5.15081 24.1775 4.79917 23.8258C4.44754 23.4742 4.25 22.9973 4.25 22.5V7.5C4.25 7.00272 4.44754 6.52581 4.79917 6.17417C5.15081 5.82254 5.62772 5.625 6.125 5.625H8V4.375ZM18 21.875C17.9999 20.8228 18.3789 19.8058 19.0676 19.0103C19.7563 18.2149 20.7086 17.6942 21.75 17.5437V11.25H5.5V22.5C5.5 22.6658 5.56585 22.8247 5.68306 22.9419C5.80027 23.0592 5.95924 23.125 6.125 23.125H18.1813C18.0607 22.7193 17.9996 22.2982 18 21.875ZM22.375 25C23.2038 25 23.9987 24.6708 24.5847 24.0847C25.1708 23.4987 25.5 22.7038 25.5 21.875C25.5 21.0462 25.1708 20.2513 24.5847 19.6653C23.9987 19.0792 23.2038 18.75 22.375 18.75C21.5462 18.75 20.7513 19.0792 20.1653 19.6653C19.5792 20.2513 19.25 21.0462 19.25 21.875C19.25 22.7038 19.5792 23.4987 20.1653 24.0847C20.7513 24.6708 21.5462 25 22.375 25Z" fill="#7E7143"/>
<path d="M17.375 8.125C17.2092 8.125 17.0503 8.05915 16.9331 7.94194C16.8158 7.82473 16.75 7.66576 16.75 7.5V6.875H10.5V5.625H16.75V4.375C16.75 4.20924 16.8158 4.05027 16.9331 3.93306C17.0503 3.81585 17.2092 3.75 17.375 3.75C17.5408 3.75 17.6997 3.81585 17.8169 3.93306C17.9342 4.05027 18 4.20924 18 4.375V7.5C18 7.66576 17.9342 7.82473 17.8169 7.94194C17.6997 8.05915 17.5408 8.125 17.375 8.125Z" fill="#7E7143"/>
</svg>
