<svg width="21" height="20" viewBox="0 0 21 20" fill="none" xmlns="http://www.w3.org/2000/svg">
<g clip-path="url(#clip0_38_205)">
<path d="M13 12.5H16.3333L18.8333 18.3333H2.16666L4.66666 12.5H7.99999M11.3333 6.66663C11.3333 6.88764 11.2455 7.0996 11.0892 7.25588C10.933 7.41216 10.721 7.49996 10.5 7.49996C10.279 7.49996 10.067 7.41216 9.91073 7.25588C9.75445 7.0996 9.66666 6.88764 9.66666 6.66663C9.66666 6.44561 9.75445 6.23365 9.91073 6.07737C10.067 5.92109 10.279 5.83329 10.5 5.83329C10.721 5.83329 10.933 5.92109 11.0892 6.07737C11.2455 6.23365 11.3333 6.44561 11.3333 6.66663ZM5.49999 6.66663C5.49999 10.8333 10.5 15 10.5 15C10.5 15 15.5 10.8333 15.5 6.66663C15.5 3.81913 13.2617 1.66663 10.5 1.66663C7.73832 1.66663 5.49999 3.81913 5.49999 6.66663Z" stroke="white" stroke-width="2"/>
</g>
<defs>
<clipPath id="clip0_38_205">
<rect width="20" height="20" fill="white" transform="translate(0.5)"/>
</clipPath>
</defs>
</svg>
